# xmcd
#
# Track frame offsets:
#	150
#	18377
#	34286
#	50831
#	69557
#	91996
#	113164
#
# Disc length: 1668 seconds
#
# Revision: 0
# Processed by: cddbd v1.5.2PL0 Copyright (c) Steve Scherf et al.
# Submitted via: EasyCDDAExtractor 2010.6.0.0
#
DISCID=5c068207
DTITLE=India Arie - Voyage to India Special Edition cd2
DYEAR=2002
DGENRE=blues
TTITLE0=Insterested
TTITLE1=Little Things (Bedroom Rockers Remix)
TTITLE2=Little Things (Corporate's Rap Remix)
TTITLE3=Butterfly (Remix)
TTITLE4=When Love Came In
TTITLE5=Eyes of The Heart
TTITLE6=Christmas Song (Chestnuts Roasting On an Open Fire)
EXTD=
EXTT0=
EXTT1=
EXTT2=
EXTT3=
EXTT4=
EXTT5=
EXTT6=
PLAYORDER=
